<?xml version="1.0" standalone="no"?>
<!DOCTYPE svg PUBLIC "-//W3C//DTD SVG 20010904//EN"
 "http://www.w3.org/TR/2001/REC-SVG-20010904/DTD/svg10.dtd">
<svg version="1.0" xmlns="http://www.w3.org/2000/svg"
 width="700.000000pt" height="700.000000pt" viewBox="0 0 700.000000 700.000000"
 preserveAspectRatio="xMidYMid meet">
<metadata>
Created by potrace 1.14, written by Peter Selinger 2001-2017
</metadata>
<g transform="translate(0.000000,700.000000) scale(0.100000,-0.100000)"
fill="#000000" stroke="none">
<path d="M0 3500 l0 -3500 3500 0 3500 0 0 3500 0 3500 -3500 0 -3500 0 0
-3500z m5533 2452 c15 -17 17 -83 19 -698 l3 -679 48 -7 c81 -11 112 -55 105
-150 -8 -106 -51 -127 -253 -128 -157 0 -169 6 -173 84 l-3 58 -52 -49 c-94
-88 -224 -130 -372 -119 -156 11 -276 66 -381 173 -109 110 -164 252 -164 424
0 184 55 324 176 445 103 104 214 154 379 169 114 11 194 -11 378 -103 4 -2 7
69 7 157 l0 161 -122 0 c-133 0 -172 12 -198 61 -19 34 -9 153 14 178 31 35
69 39 327 40 226 1 247 0 262 -17z m-3587 -106 c34 -3 98 -17 143 -31 l82 -26
28 30 c29 31 50 36 121 31 78 -5 87 -27 93 -240 8 -247 -9 -285 -122 -284 -70
0 -99 18 -136 87 -44 82 -83 126 -139 155 -46 24 -62 27 -151 27 -84 0 -107
-4 -141 -22 -92 -49 -135 -140 -97 -206 26 -44 136 -98 260 -126 313 -73 403
-109 494 -200 70 -71 99 -141 106 -262 13 -217 -74 -373 -258 -458 -163 -76
-442 -89 -661 -30 l-78 21 -30 -25 c-38 -32 -101 -42 -160 -25 -72 21 -78 43
-82 293 -4 267 3 287 106 301 81 12 126 -27 195 -166 33 -65 95 -124 165 -157
56 -25 71 -28 176 -28 104 0 120 2 165 26 106 54 127 179 43 255 -44 41 -129
75 -296 119 -194 51 -233 64 -316 106 -104 53 -169 127 -196 228 -16 61 -13
196 6 261 42 143 171 266 334 320 62 21 206 40 260 34 14 -2 52 -5 86 -8z
m1237 -385 c15 -12 17 -49 17 -350 0 -446 10 -503 100 -548 84 -43 179 -25
252 48 70 70 78 107 78 371 l0 218 -36 0 c-52 0 -91 27 -110 77 -20 53 -12
123 19 159 30 35 79 43 245 44 138 0 176 -7 194 -34 4 -6 8 -206 8 -443 l0
-433 36 0 c82 0 131 -64 121 -158 -11 -102 -53 -121 -262 -122 -170 0 -178 4
-185 90 l-5 65 -28 -37 c-70 -91 -192 -142 -337 -141 -230 2 -355 117 -390
360 -5 38 -10 182 -10 321 l0 252 -35 0 c-80 0 -125 51 -125 140 0 82 26 115
105 134 11 2 90 4 176 3 116 -2 160 -6 172 -16z m23 -2515 c18 -14 19 -34 24
-486 l5 -471 75 67 c41 37 99 89 128 116 l52 49 -30 25 c-27 23 -30 32 -30 82
0 74 25 117 77 131 53 15 399 13 442 -2 52 -18 76 -58 76 -127 0 -75 -17 -94
-109 -121 -39 -12 -84 -28 -100 -36 -35 -18 -196 -172 -195 -187 0 -6 73 -101
162 -211 l163 -200 63 -11 c45 -8 71 -19 90 -38 23 -24 26 -34 26 -101 0 -68
-2 -77 -28 -102 l-27 -28 -233 -3 c-260 -4 -298 2 -322 48 -31 60 -14 128 42
166 l33 22 -98 119 c-53 65 -100 121 -104 123 -3 3 -40 -25 -81 -62 l-75 -68
-4 -158 c-2 -116 -7 -163 -17 -175 -20 -24 -346 -25 -392 -1 -56 28 -76 125
-41 194 19 38 48 56 105 65 l37 6 0 553 0 553 -46 6 c-68 7 -106 48 -112 119
-6 72 16 124 60 143 47 20 356 21 384 1z m-1229 -457 c234 -32 419 -154 511
-336 91 -183 82 -420 -23 -598 -71 -122 -229 -233 -392 -276 -111 -30 -326
-30 -436 0 -239 63 -406 222 -461 437 -20 79 -21 241 -1 319 81 317 417 507
802 454z m2779 -33 c18 -14 19 -33 24 -398 5 -367 6 -385 27 -430 54 -117 224
-130 321 -24 73 79 76 92 80 354 l4 232 -32 0 c-17 0 -45 6 -64 14 -90 38 -88
220 4 252 22 8 95 13 195 13 130 1 165 -2 183 -15 l22 -15 0 -434 0 -434 46
-7 c103 -15 152 -121 101 -222 -22 -45 -53 -52 -236 -52 -164 0 -170 1 -185
22 -9 13 -16 43 -16 69 l0 47 -59 -58 c-88 -86 -142 -105 -301 -105 -117 0
-129 2 -188 29 -72 33 -124 86 -158 161 -46 99 -54 169 -54 463 l0 272 -30 0
c-44 0 -96 24 -115 54 -25 37 -23 140 2 175 31 41 73 50 249 50 123 1 165 -2
180 -13z"/>
<path d="M4835 5177 c-233 -111 -230 -516 3 -619 70 -31 165 -29 236 6 61 30
94 64 134 140 25 47 27 60 27 166 0 106 -2 119 -27 167 -30 57 -86 116 -133
141 -17 9 -63 17 -110 19 -69 4 -87 1 -130 -20z"/>
<path d="M1773 2220 c-233 -49 -341 -343 -201 -550 64 -96 156 -142 283 -143
67 -1 90 4 142 27 75 34 134 94 171 174 34 74 37 198 8 282 -26 74 -120 169
-191 194 -61 21 -156 28 -212 16z"/>
</g>
</svg>
